first trial
nRows=13
nColumns=38

# SIMM Motion File Header:
name Sujet_02_velo_80.mvnx
datacolumns 38
datarows 13
otherdata 1
range 11.7990 11.9990
endheader
time pelvis_tilt  pelvis_list  pelvis_rotation  pelvis_tx  pelvis_ty  pelvis_tz  hip_flexion_r  hip_adduction_r  hip_rotation_r  knee_angle_r  ankle_angle_r  subtalar_angle_r  mtp_angle_r  hip_flexion_l  hip_adduction_l  hip_rotation_l  knee_angle_l  ankle_angle_l  subtalar_angle_l  mtp_angle_l  lumbar_extension  lumbar_bending  lumbar_rotation  arm_flex_r  arm_add_r  arm_rot_r  elbow_flex_r  pro_sup_r  wrist_flex_r  wrist_dev_r  arm_flex_l  arm_add_l  arm_rot_l  elbow_flex_l  pro_sup_l  wrist_flex_l  wrist_dev_l
11.7990	3.7165	1.0800	-89.1839	-3.7308	12.8024	13.1465	31.2156	-1.7035	-2.3431	41.6511	-3.5551	-8.3090	-0.0000	62.9135	4.6958	1.0028	103.1259	-16.3713	-12.3763	0.0000	-26.4200	2.8988	1.2823	85.2566	-16.9292	45.6059	9.1054	95.4611	-17.2877	-4.9452	94.2330	2.1353	34.6465	-1.3264	91.8524	-9.2262	2.5753	
11.8160	3.8856	1.1532	-89.1353	-3.7356	12.8228	13.1615	29.5158	-1.8197	-2.7540	41.5874	-3.9472	-7.9378	0.0000	64.5125	5.3665	1.2225	103.3755	-15.7537	-13.1956	-0.0000	-26.5470	2.8263	1.2681	85.0881	-17.1347	45.5232	9.3664	95.3462	-17.3637	-5.0147	94.1558	2.3977	34.4039	-1.1494	91.9570	-8.8098	3.1969	
11.8320	4.0306	1.2261	-89.1395	-3.7406	12.8432	13.1767	28.3194	-2.0272	-3.2618	42.5240	-3.8428	-7.3922	0.0000	65.9024	5.9818	1.5418	102.9646	-15.4993	-14.1574	0.0000	-26.6816	2.7739	1.2592	84.8967	-17.3196	45.4012	9.6589	95.2669	-17.4414	-5.0177	93.9963	2.6842	34.0969	-0.9667	92.0195	-8.3783	3.8531	
11.8490	4.1226	1.2702	-89.1770	-3.7453	12.8636	13.1923	27.7726	-2.1865	-3.7742	44.3597	-3.7128	-6.8990	-0.0000	66.8787	6.4131	1.7836	101.8710	-15.2581	-14.8108	-0.0000	-26.7950	2.7315	1.2741	84.7478	-17.4586	45.2999	9.8876	95.2018	-17.4935	-5.0084	93.8762	2.9232	33.8694	-0.7973	92.0226	-7.9989	4.4140	
11.8660	4.1507	1.2878	-89.2742	-3.7495	12.8838	13.2084	28.0300	-2.2086	-4.4055	47.2605	-3.6875	-6.5782	-0.0000	67.3634	6.5929	1.9845	99.9813	-14.9498	-14.9399	-0.0000	-26.8781	2.6786	1.3312	84.6645	-17.5364	45.2463	10.0113	95.1420	-17.5083	-5.0003	93.8442	3.0843	33.7896	-0.6337	91.9302	-7.6752	4.8448	
11.8820	4.1257	1.2767	-89.4045	-3.7533	12.9040	13.2248	28.9375	-2.1990	-5.0380	51.0615	-3.6310	-6.3224	-0.0000	67.4349	6.5822	2.1252	97.4145	-14.6779	-14.7404	0.0000	-26.9398	2.6355	1.4121	84.6246	-17.5688	45.2138	10.0710	95.0969	-17.4976	-4.9800	93.8511	3.1979	33.7890	-0.4850	91.7773	-7.4035	5.1801	
11.8990	4.0528	1.2024	-89.4683	-3.7570	12.9242	13.2415	30.1798	-2.3013	-5.2260	55.1661	-3.6154	-6.0143	0.0000	67.1259	6.4395	1.9441	94.5012	-14.3792	-14.3632	-0.0000	-26.9792	2.6537	1.4805	84.6257	-17.5775	45.1821	10.0951	95.0733	-17.4694	-4.9614	93.8710	3.2838	33.8053	-0.3953	91.6528	-7.2368	5.3962	
11.9160	3.9048	1.0222	-89.4009	-3.7605	12.9445	13.2587	31.7319	-2.5565	-4.6693	59.4699	-3.6927	-5.5816	-0.0000	66.4009	6.1636	1.2194	91.3101	-13.9632	-13.7353	0.0000	-26.9992	2.7763	1.5219	84.6705	-17.5584	45.1227	10.0841	95.0767	-17.4127	-4.9464	93.9186	3.3540	33.8294	-0.3891	91.5946	-7.2235	5.4614	
11.9320	3.7082	0.7793	-89.2682	-3.7637	12.9648	13.2762	33.6268	-2.8933	-3.6605	64.0593	-3.8097	-5.1026	-0.0000	65.2907	5.7739	0.1649	87.7608	-13.5161	-12.8763	0.0000	-26.9969	2.9603	1.5514	84.7564	-17.5156	45.0641	10.0377	95.1016	-17.3384	-4.9329	93.9792	3.3964	33.8703	-0.4422	91.5643	-7.3109	5.4112	
11.9490	3.5500	0.5674	-89.1663	-3.7670	12.9851	13.2931	35.6343	-3.2834	-2.6385	68.6415	-3.8801	-4.6829	-0.0000	63.9302	5.3542	-0.8277	83.9683	-13.2393	-12.0912	-0.0000	-26.9621	3.1291	1.5766	84.8729	-17.4825	45.0709	9.9824	95.1379	-17.2877	-4.9288	93.9833	3.3945	33.8936	-0.5262	91.5360	-7.3990	5.3236	
11.9660	3.4895	0.4154	-89.1214	-3.7701	13.0055	13.3087	37.6341	-3.7506	-1.5979	73.1989	-3.8394	-4.4155	-0.0000	62.4279	4.9384	-1.6613	79.9410	-13.2860	-11.5242	-0.0000	-26.8848	3.2547	1.6019	85.0284	-17.4901	45.2038	9.9223	95.1584	-17.2882	-4.9536	93.8726	3.3434	33.8651	-0.6340	91.5043	-7.4200	5.2604	
11.9820	3.4679	0.2937	-89.1067	-3.7732	13.0260	13.3238	39.7510	-4.2580	-0.5334	77.7801	-3.7497	-4.2156	0.0000	60.6769	4.4944	-2.4403	75.6805	-13.5048	-11.0446	0.0000	-26.7752	3.3652	1.6219	85.2146	-17.5069	45.4026	9.8533	95.1903	-17.3125	-4.9879	93.7053	3.2484	33.8188	-0.7727	91.4745	-7.4421	5.1595	
11.9990	3.3951	0.2080	-89.1394	-3.7764	13.0463	13.3392	42.1082	-4.7236	0.1112	82.1937	-3.7162	-3.9078	-0.0000	58.4954	3.9951	-3.0807	71.3057	-13.6471	-10.5673	0.0000	-26.6537	3.4674	1.6291	85.3960	-17.4726	45.5499	9.7884	95.3060	-17.3195	-4.9814	93.5867	3.1073	33.8218	-0.9349	91.4377	-7.5702	4.9130	
